#!OML:ASF E:\Style4\Style4.ASF
:FULLY-SPECIFIED
:DEGREES
1162
root -0.201031 18.0857 -2.23216 0.10435 0.0719205 0.592873
lowerback 5.52079 2.08301 0.20067
upperback 1.61249 2.76821 -0.893667
thorax -1.37948 1.38269 -1.21146
lowerneck 4.6919 -4.58607 -5.09538
upperneck 1.44697 -6.36588 5.95718
head 0.0282076 -3.24548 2.84705
rclavicle -1.9953e-014 -3.8763e-015
rhumerus 62.1562 -34.9746 -35.0922
rradius 29.6339
rwrist 9.36013
rhand -32.6906 23.7911
rfingers 7.12502
rthumb -5.9155 -6.10634
lclavicle -1.9953e-014 -3.8763e-015
lhumerus 54.0313 27.8628 33.8655
lradius 46.3378
lwrist 14.9831
lhand -21.346 32.7232
lfingers 7.12502
lthumb 5.04029 62.6432
rfemur -8.02868 3.55351 18.1684
rtibia 21.1636
rfoot -12.5052 -14.9166
rtoes -9.08385
lfemur -5.86283 -2.15798 -20.0556
ltibia 20.5804
lfoot -15.4428 12.6085
ltoes -13.3381
1163
root -0.201108 18.0829 -2.23444 0.121355 0.0547418 0.494721
lowerback 5.55125 2.09551 0.266251
upperback 1.64029 2.7891 -0.855998
thorax -1.36617 1.39317 -1.21137
lowerneck 4.6276 -4.54431 -5.12376
upperneck 1.54098 -6.31226 5.95614
head 0.0667377 -3.21764 2.84804
rclavicle -1.21631e-014 1.32192e-014
rhumerus 62.278 -35.5366 -35.8258
rradius 29.1375
rwrist 9.56055
rhand -32.4506 23.2495
rfingers 7.12502
rthumb -5.68381 -6.65428
lclavicle -1.21631e-014 1.32192e-014
lhumerus 53.441 28.1482 33.8342
lradius 46.3205
lwrist 15.5511
lhand -21.2894 32.9785
lfingers 7.12502
lthumb 5.09497 62.8972
rfemur -8.12838 3.50213 18.2733
rtibia 21.2794
rfoot -12.5214 -14.8988
rtoes -9.02231
lfemur -5.98595 -2.04459 -19.9346
ltibia 20.7511
lfoot -15.5296 12.4966
ltoes -13.3138
1164
root -0.202292 18.0794 -2.23852 0.118061 0.0792311 0.396206
lowerback 5.61423 2.09974 0.351123
upperback 1.68767 2.79961 -0.849174
thorax -1.34858 1.39862 -1.25387
lowerneck 4.53639 -4.53358 -5.09666
upperneck 1.62229 -6.29596 5.96362
head 0.10663 -3.20789 2.84121
rclavicle -1.64246e-014 7.35503e-015
rhumerus 62.6594 -36.195 -36.8813
rradius 28.4698
rwrist 9.86845
rhand -32.2161 23.2147
rfingers 7.12502
rthumb -5.45736 -6.69499
lclavicle -1.64246e-014 7.35503e-015
lhumerus 53.0676 28.4404 33.9674
lradius 46.2214
lwrist 15.9574
lhand -21.219 33.0347
lfingers 7.12502
lthumb 5.1629 62.9518
rfemur -8.21627 3.46118 18.3868
rtibia 21.436
rfoot -12.6103 -14.8829
rtoes -8.86662
lfemur -6.08168 -1.96725 -19.8142
ltibia 20.8978
lfoot -15.5508 12.4428
ltoes -13.6637
1165
root -0.202746 18.0738 -2.24203 0.101431 0.100115 0.493892
lowerback 5.69266 2.12412 0.239975
upperback 1.75543 2.82503 -0.903873
thorax -1.3246 1.41175 -1.25112
lowerneck 4.35857 -4.55909 -5.06689
upperneck 1.76836 -6.3273 5.99364
head 0.185576 -3.22058 2.83771
rclavicle -2.10091e-014 6.36111e-015
rhumerus 63.3024 -36.9246 -38.2556
rradius 27.6743
rwrist 10.459
rhand -32.294 23.3291
rfingers 7.12502
rthumb -5.53255 -6.57869
lclavicle -2.10091e-014 6.36111e-015
lhumerus 52.7784 28.7301 34.1573
lradius 46.1169
lwrist 16.3263
lhand -21.3891 32.8361
lfingers 7.12502
lthumb 4.99869 62.7571
rfemur -8.30052 3.40017 18.276
rtibia 21.6204
rfoot -12.7323 -14.8138
rtoes -8.5839
lfemur -6.14198 -1.94883 -19.9152
ltibia 21.0207
lfoot -15.6209 12.3447
ltoes -13.2385
1166
root -0.200965 18.0693 -2.24372 0.0795538 0.123667 0.655224
lowerback 5.75857 2.12938 0.0874142
upperback 1.81771 2.82245 -0.966582
thorax -1.30153 1.41081 -1.23126
lowerneck 4.25063 -4.54599 -5.09968
upperneck 1.88879 -6.31153 6.0064
head 0.242958 -3.21103 2.84265
rclavicle -8.85834e-015 -1.19271e-014
rhumerus 63.5316 -37.4941 -39.1195
rradius 27.183
rwrist 10.6215
rhand -32.1891 23.1407
rfingers 7.12502
rthumb -5.43129 -6.7697
lclavicle -8.85834e-015 -1.19271e-014
lhumerus 52.388 29.0226 34.268
lradius 46.0543
lwrist 16.6409
lhand -21.6389 32.7218
lfingers 7.12502
lthumb 4.75742 62.6484
rfemur -8.38624 3.29008 18.0804
rtibia 21.8277
rfoot -12.8252 -14.737
rtoes -8.72769
lfemur -6.16446 -1.93857 -20.1041
ltibia 21.1043
lfoot -15.685 12.3569
ltoes -13.2501
1167
root -0.199495 18.0663 -2.24481 0.0638512 0.118165 0.719364
lowerback 5.8176 2.12009 0.011732
upperback 1.87854 2.80579 -0.968358
thorax -1.27576 1.4027 -1.19064
lowerneck 4.08901 -4.51085 -5.17391
upperneck 2.05908 -6.26712 5.96634
head 0.323215 -3.18635 2.83523
rclavicle -3.2551e-015 6.16232e-015
rhumerus 63.2437 -37.8605 -39.3004
rradius 27.0244
rwrist 10.1168
rhand -31.8837 22.8525
rfingers 7.12502
rthumb -5.13644 -7.06521
lclavicle -3.2551e-015 6.16232e-015
lhumerus 51.9444 29.3542 34.4141
lradius 45.9873
lwrist 16.6868
lhand -21.5367 32.7266
lfingers 7.12502
lthumb 4.85614 62.6509
rfemur -8.49933 3.18725 17.9991
rtibia 22.0464
rfoot -12.8708 -14.6728
rtoes -9.04942
lfemur -6.16728 -1.91339 -20.1821
ltibia 21.1493
lfoot -15.6958 12.3932
ltoes -13.5542
1168
root -0.198287 18.0633 -2.24621 0.0469397 0.113126 0.752168
lowerback 5.87657 2.11981 -0.045324
upperback 1.93466 2.80223 -0.962464
thorax -1.25398 1.40105 -1.15355
lowerneck 3.94384 -4.50361 -5.22237
upperneck 2.22122 -6.25875 5.92028
head 0.399202 -3.17987 2.82186
rclavicle 1.22874e-014 2.14687e-014
rhumerus 62.8681 -38.1834 -39.3689
rradius 26.9129
rwrist 9.51076
rhand -31.7294 22.515
rfingers 7.12502
rthumb -4.98741 -7.4063
lclavicle 1.22874e-014 2.14687e-014
lhumerus 51.4054 29.6294 34.4717
lradius 46.0269
lwrist 16.6416
lhand -21.5164 32.6887
lfingers 7.12502
lthumb 4.87574 62.6126
rfemur -8.59024 3.11418 17.9527
rtibia 22.2262
rfoot -12.9076 -14.615
rtoes -9.22497
lfemur -6.1818 -1.8844 -20.2221
ltibia 21.1978
lfoot -15.646 12.3555
ltoes -13.7861
1169
root -0.198736 18.0602 -2.24832 0.00909551 0.0921882 0.785682
lowerback 5.96017 2.15292 -0.097811
upperback 1.97009 2.84256 -0.98064
thorax -1.2649 1.42117 -1.14826
lowerneck 3.95835 -4.52462 -5.28045
upperneck 2.27091 -6.2921 5.97945
head 0.41864 -3.19718 2.85201
rclavicle -4.2366e-015 6.55989e-015
rhumerus 62.4479 -38.5536 -39.5298
rradius 26.8522
rwrist 9.03018
rhand -31.6293 22.2391
rfingers 7.12502
rthumb -4.89081 -7.68441
lclavicle -4.2366e-015 6.55989e-015
lhumerus 50.8334 29.7857 34.404
lradius 46.1329
lwrist 16.6685
lhand -21.5829 32.7472
lfingers 7.12502
lthumb 4.81157 62.6725
rfemur -8.63916 3.12434 17.9144
rtibia 22.3766
rfoot -13.0179 -14.5644
rtoes -8.81535
lfemur -6.18881 -1.83561 -20.2551
ltibia 21.2685
lfoot -15.6642 12.267
ltoes -13.497
1170
root -0.199559 18.0575 -2.24997 -0.00115409 0.0552745 0.818201
lowerback 6.0187 2.18428 -0.163183
upperback 1.96975 2.87973 -0.992486
thorax -1.2997 1.43952 -1.12902
lowerneck 4.08874 -4.49713 -5.29081
upperneck 2.28105 -6.26126 5.98522
head 0.397994 -3.18368 2.85969
rclavicle -3.01531e-014 -4.77083e-015
rhumerus 61.7594 -38.8245 -39.3937
rradius 26.9646
rwrist 8.45054
rhand -31.5541 21.9458
rfingers 7.12502
rthumb -4.81814 -7.97945
lclavicle -3.01531e-014 -4.77083e-015
lhumerus 50.2307 29.9215 34.3187
lradius 46.1794
lwrist 16.6371
lhand -21.4886 32.7767
lfingers 7.12502
lthumb 4.90259 62.7
rfemur -8.71009 3.13985 17.8808
rtibia 22.5059
rfoot -13.0398 -14.5578
rtoes -8.77827
lfemur -6.24243 -1.81025 -20.2882
ltibia 21.387
lfoot -15.6796 12.2578
ltoes -13.5155
1171
root -0.199101 18.054 -2.25192 -0.0107309 0.0293141 0.850854
lowerback 6.06732 2.2018 -0.193508
upperback 1.99108 2.90054 -1.01813
thorax -1.30459 1.44994 -1.1414
lowerneck 4.05718 -4.45496 -5.2262
upperneck 2.45644 -6.2059 5.89876
head 0.450437 -3.15437 2.81537
rclavicle -7.90169e-015 -5.1684e-015
rhumerus 61.1483 -39.0863 -39.3234
rradius 27.0372
rwrist 7.88542
rhand -31.4369 21.703
rfingers 7.12502
rthumb -4.70504 -8.2248
lclavicle -7.90169e-015 -5.1684e-015
lhumerus 49.6054 30.0553 34.2052
lradius 46.2963
lwrist 16.5409
lhand -21.2096 32.6975
lfingers 7.12502
lthumb 5.17197 62.6144
rfemur -8.78854 3.07134 17.837
rtibia 22.6336
rfoot -13.0803 -14.4559
rtoes -8.82751
lfemur -6.31531 -1.81863 -20.329
ltibia 21.5477
lfoot -15.7315 12.2915
ltoes -13.8287
1172
root -0.200364 18.0499 -2.25463 -0.0249987 0.00791263 0.72024
lowerback 6.11913 2.23203 -0.0630558
upperback 2.02281 2.9488 -0.989344
thorax -1.29483 1.47423 -1.18947
lowerneck 3.90986 -4.4481 -5.17445
upperneck 2.74306 -6.19715 5.80069
head 0.561042 -3.14655 2.7647
rclavicle 1.79403e-014 -1.98785e-015
rhumerus 60.3901 -39.3283 -39.0208
rradius 27.1345
rwrist 7.13349
rhand -31.2888 21.7156
rfingers 7.12502
rthumb -4.56198 -8.21524
lclavicle 1.79403e-014 -1.98785e-015
lhumerus 49.0033 30.1224 34.1058
lradius 46.4321
lwrist 16.552
lhand -21.1996 32.5237
lfingers 7.12502
lthumb 5.18166 62.4403
rfemur -8.86515 3.08869 17.9954
rtibia 22.7774
rfoot -13.1433 -14.4677
rtoes -8.99135
lfemur -6.40064 -1.83706 -20.174
ltibia 21.7133
lfoot -15.865 12.2631
ltoes -13.3995
1173
root -0.200412 18.0446 -2.25707 -0.0467268 -0.0192898 0.623203
lowerback 6.18092 2.26055 0.0331689
upperback 2.074 2.99303 -0.953325
thorax -1.27267 1.49656 -1.21068
lowerneck 3.76693 -4.44711 -5.19832
upperneck 2.93255 -6.19647 5.75067
head 0.644865 -3.14393 2.74575
rclavicle -7.35503e-015 -3.77691e-015
rhumerus 59.314 -39.4461 -38.2681
rradius 27.377
rwrist 6.09034
rhand -31.3329 21.5705
rfingers 7.12502
rthumb -4.60456 -8.35951
lclavicle -7.35503e-015 -3.77691e-015
lhumerus 48.4665 30.2372 34.1049
lradius 46.5201
lwrist 16.3976
lhand -21.3789 32.4321
lfingers 7.12502
lthumb 5.00851 62.353
rfemur -8.92875 3.08579 18.1009
rtibia 22.9247
rfoot -13.2353 -14.3896
rtoes -8.75338
lfemur -6.49332 -1.76647 -20.0634
ltibia 21.8925
lfoot -15.9198 12.2471
ltoes -13.5308
